<?xml version="1.0" encoding="utf-8"?>
<svg viewBox="0 0 200 200" xmlns="http://www.w3.org/2000/svg">
  <g transform="matrix(1, 0, 0, 1, 0, 7.105427357601002e-15)">
    <path opacity="1.000000" stroke="none" d="M 29.776 45.629 C 57.24 8.789 104.092 -3.344 145.759 15.691 C 163.673 23.875 176.928 37.252 186.897 54.442 C 173.763 59.835 160.857 65.176 147.889 70.366 C 147.059 70.698 145.297 70.228 144.752 69.524 C 126.602 46.107 92.187 45.369 71.401 64.576 C 63.548 71.833 58.712 80.9 57.354 91.651 C 55.768 104.188 56.847 116.289 63.433 127.413 C 64.767 129.666 66.534 131.663 67.874 133.981 C 56.096 128.009 45.907 119.917 36.169 111.26 C 29.281 105.135 22.803 98.55 15.942 92.394 C 13.562 90.258 13.149 87.993 13.635 85.14 C 16.065 70.862 21.246 57.712 29.776 45.629 Z" style="fill: rgb(16, 185, 129);"/>
    <path opacity="1.000000" stroke="none" d="M 56.343 137.442 C 68 144.479 79.987 150.229 93.285 151.967 C 109.164 154.04 124.883 153.821 137.652 141.87 C 141.983 137.815 145.896 133.314 150.381 128.617 C 162.213 133.321 174.69 138.281 187.167 143.241 C 177.198 168.408 140.893 197.343 96.345 192.734 C 45.68 187.493 12.828 144.265 12.833 101.418 C 26.526 114.696 40.13 127.447 56.343 137.442 Z" style="fill: rgb(26, 26, 26);"/>
  </g>
</svg>
